o SelectorBtn
v 0 0 0
v 7.34763812293426E-18 0 0.12
v -0.103923048454133 0 -0.06
v 0.103923048454133 0 -0.0600000000000001
v 7.34237119081037E-18 0.00606939787140983 0.119913981629975
v -0.103848554360499 0.00606939787140983 -0.0599569908149876
v 0.103848554360499 0.00606939787140983 -0.0599569908149877
v 7.32585623415072E-18 0.0116576760460709 0.119644263012101
v -0.103614971185546 0.0116576760460709 -0.0598221315060505
v 0.103614971185546 0.0116576760460709 -0.0598221315060505
v 7.29702201252332E-18 0.016782329785683 0.119173348884677
v -0.103207147588196 0.016782329785683 -0.0595866744423385
v 0.103207147588196 0.016782329785683 -0.0595866744423386
v 7.25479728549621E-18 0.0214608543519463 0.118483743986004
v -0.102609932227371 0.0214608543519463 -0.0592418719930019
v 0.102609932227371 0.0214608543519463 -0.0592418719930019
v 7.19811081263739E-18 0.0257107450065607 0.117557953054381
v -0.101808173761992 0.0257107450065607 -0.0587789765271906
v 0.101808173761992 0.0257107450065607 -0.0587789765271906
v 7.1258913535149E-18 0.0295494970112261 0.116378480828109
v -0.100786720850983 0.0295494970112261 -0.0581892404140545
v 0.100786720850983 0.0295494970112261 -0.0581892404140546
v 7.03706766769676E-18 0.0329946056276425 0.114927832045488
v -0.0995304221532636 0.0329946056276425 -0.0574639160227438
v 0.0995304221532636 0.0329946056276425 -0.0574639160227439
v 6.93056851475099E-18 0.0360635661175098 0.113188511444817
v -0.0980241263277572 0.0360635661175098 -0.0565942557224085
v 0.0980241263277572 0.0360635661175098 -0.0565942557224086
v 6.80532265424561E-18 0.0387738737425281 0.111143023764397
v -0.0962526820333855 0.0387738737425281 -0.0555715118821986
v 0.0962526820333855 0.0387738737425281 -0.0555715118821986
v 6.66025884574865E-18 0.0411430237643971 0.108773873742528
v -0.0942009379290704 0.0411430237643971 -0.054386936871264
v 0.0942009379290704 0.0411430237643971 -0.0543869368712641
v 6.49430584882812E-18 0.043188511444817 0.10606356611751
v -0.091853742673734 0.043188511444817 -0.0530317830587549
v 0.0918537426737339 0.043188511444817 -0.053031783058755
v 6.30639242305205E-18 0.0449278320454877 0.102994605627643
v -0.0891959449262981 0.0449278320454877 -0.0514973028138213
v 0.0891959449262981 0.0449278320454877 -0.0514973028138213
v 6.09544732798846E-18 0.0463784808281091 0.0995494970112261
v -0.0862123933456849 0.0463784808281091 -0.0497747485056131
v 0.0862123933456848 0.0463784808281091 -0.0497747485056131
v 5.86039932320538E-18 0.0475579530543811 0.0957107450065607
v -0.0828879365908162 0.0475579530543811 -0.0478553725032804
v 0.0828879365908162 0.0475579530543811 -0.0478553725032804
v 5.60017716827083E-18 0.0484837439860038 0.0914608543519463
v -0.0792074233206141 0.0484837439860038 -0.0457304271759732
v 0.079207423320614 0.0484837439860038 -0.0457304271759732
v 5.31370962275282E-18 0.0491733488846771 0.086782329785683
v -0.0751557021940005 0.0491733488846771 -0.0433911648928415
v 0.0751557021940004 0.0491733488846771 -0.0433911648928416
v 4.99992544621939E-18 0.0496442630121009 0.0816576760460709
v -0.0707176218698974 0.0496442630121009 -0.0408288380230354
v 0.0707176218698974 0.0496442630121009 -0.0408288380230355
v 4.65775339823854E-18 0.0499139816299752 0.0760693978714098
v -0.0658780310072268 0.0499139816299752 -0.0380346989357049
v 0.0658780310072268 0.0499139816299752 -0.0380346989357049
v 4.28612223837832E-18 0.05 0.07
v -0.0606217782649107 0.05 -0.035
v 0.0606217782649107 0.05 -0.035
v 0 0.05 0
vn 0 -1 0
vn -0.866003660983459 0.00708605797753694 0.499987446788002
vn -0.865924618086343 0.0152558531727628 0.499941811350074
vn -0.865924618086343 0.0152558531727624 0.499941811350074
vn -0.866003660983459 0.00708605797753729 0.499987446788002
vn -2.00303584131982E-16 0.00708605797753694 -0.999974893576003
vn -2.00428973235946E-16 0.0152558531727628 -0.999883622700148
vn -2.00428973235946E-16 0.0152558531727628 -0.999883622700148
vn -2.00303584131982E-16 0.00708605797753693 -0.999974893576003
vn 0.866003660983459 0.00708605797753531 0.499987446788001
vn 0.865924618086343 0.0152558531727624 0.499941811350073
vn 0.865924618086343 0.0152558531727628 0.499941811350073
vn 0.866003660983459 0.00708605797753693 0.499987446788001
vn -0.865508463014532 0.0345465955915273 0.499701544107339
vn -0.865508463014532 0.0345465955915263 0.499701544107339
vn -2.00784266511274E-16 0.0345465955915273 -0.999403088214678
vn -2.00784266511274E-16 0.0345465955915272 -0.999403088214678
vn 0.865508463014532 0.0345465955915275 0.499701544107339
vn 0.865508463014532 0.0345465955915272 0.499701544107339
vn -0.864512288516775 0.0590875396169477 0.499126402492899
vn -0.864512288516775 0.0590875396169481 0.499126402492899
vn -2.01345656718832E-16 0.0590875396169477 -0.998252804985799
vn -2.01345656718832E-16 0.0590875396169477 -0.998252804985799
vn 0.864512288516775 0.0590875396169481 0.499126402492899
vn 0.864512288516775 0.0590875396169477 0.499126402492899
vn -0.862503364875514 0.090095842141689 0.497966549887836
vn -0.862503364875514 0.0900958421416893 0.497966549887836
vn -2.02046935361568E-16 0.090095842141689 -0.995933099775673
vn -2.02046935361568E-16 0.090095842141689 -0.995933099775673
vn 0.862503364875515 0.0900958421416894 0.497966549887836
vn 0.862503364875515 0.090095842141689 0.497966549887836
vn -0.858783909384091 0.129048812382381 0.495819121258624
vn -0.858783909384091 0.129048812382381 0.495819121258624
vn -2.02759924914389E-16 0.129048812382382 -0.991638242517248
vn -2.02759924914389E-16 0.129048812382382 -0.991638242517248
vn 0.858783909384091 0.129048812382381 0.495819121258624
vn 0.858783909384091 0.129048812382381 0.495819121258624
vn -0.852246744319865 0.177671932865755 0.492044887249056
vn -0.852246744319865 0.177671932865756 0.492044887249056
vn -1.69379817090651E-16 0.177671932865755 -0.984089774498113
vn -1.69379817090651E-16 0.177671932865756 -0.984089774498113
vn 0.852246744319866 0.177671932865754 0.492044887249056
vn 0.852246744319865 0.177671932865755 0.492044887249056
vn -0.841177022749991 0.237826873719693 0.485653780520835
vn -0.841177022749991 0.237826873719693 0.485653780520835
vn -1.69289950959734E-16 0.237826873719693 -0.97130756104167
vn -1.69289950959734E-16 0.237826873719693 -0.97130756104167
vn 0.841177022749991 0.237826873719693 0.485653780520835
vn 0.841177022749991 0.237826873719693 0.485653780520835
vn -0.823025641885347 0.311188673314037 0.475174075892469
vn -0.823025641885347 0.311188673314037 0.475174075892469
vn -1.68182192590038E-16 0.311188673314038 -0.950348151784939
vn -1.68182192590038E-16 0.311188673314037 -0.950348151784939
vn 0.823025641885346 0.311188673314039 0.475174075892469
vn 0.823025641885347 0.311188673314037 0.475174075892469
vn -0.794271191375946 0.398552839742713 0.458572686150467
vn -0.794271191375946 0.398552839742714 0.458572686150467
vn -1.65293431268968E-16 0.398552839742713 -0.917145372300934
vn -1.65293431268968E-16 0.398552839742713 -0.917145372300934
vn 0.794271191375946 0.398552839742712 0.458572686150467
vn 0.794271191375946 0.398552839742713 0.458572686150467
vn -0.750666447156461 0.49866473054013 0.433397475337403
vn -0.750666447156462 0.498664730540129 0.433397475337403
vn -1.59621505141056E-16 0.498664730540131 -0.866794950674806
vn -1.59621505141056E-16 0.49866473054013 -0.866794950674806
vn 0.750666447156462 0.498664730540129 0.433397475337403
vn 0.750666447156462 0.49866473054013 0.433397475337403
vn -0.688340273131937 0.606836241924349 0.397413441986784
vn -0.688340273131937 0.606836241924349 0.397413441986785
vn -1.5010872881511E-16 0.60683624192435 -0.794826883973568
vn -1.5010872881511E-16 0.606836241924349 -0.794826883973569
vn 0.688340273131936 0.60683624192435 0.397413441986784
vn 0.688340273131937 0.606836241924349 0.397413441986784
vn -0.605969425450027 0.714423828848362 0.349856610904256
vn -0.605969425450027 0.714423828848362 0.349856610904256
vn -1.36083423223506E-16 0.714423828848362 -0.699713221808511
vn -1.36083423223505E-16 0.714423828848362 -0.699713221808511
vn 0.605969425450027 0.714423828848361 0.349856610904256
vn 0.605969425450027 0.714423828848361 0.349856610904256
vn -0.507029169561552 0.810696343656672 0.292733427533354
vn -0.507029169561552 0.810696343656672 0.292733427533355
vn -9.42438142338258E-17 0.810696343656672 -0.585466855066709
vn -9.42438142338257E-17 0.810696343656673 -0.585466855066708
vn 0.507029169561552 0.810696343656672 0.292733427533355
vn 0.507029169561552 0.810696343656672 0.292733427533354
vn -0.39987448200446 0.887017774073451 0.230867639827337
vn -0.39987448200446 0.887017774073451 0.230867639827337
vn -7.73075612445564E-17 0.887017774073451 -0.461735279654674
vn -7.73075612445565E-17 0.887017774073451 -0.461735279654674
vn 0.39987448200446 0.887017774073451 0.230867639827337
vn 0.39987448200446 0.887017774073451 0.230867639827337
vn -0.294676571236755 0.940330238702801 0.170131597727417
vn -0.294676571236755 0.940330238702801 0.170131597727416
vn -7.45211153728775E-17 0.940330238702801 -0.340263195454832
vn -7.45211153728776E-17 0.940330238702801 -0.340263195454833
vn 0.294676571236755 0.940330238702801 0.170131597727416
vn 0.294676571236755 0.940330238702801 0.170131597727416
vn -0.19952728246672 0.973097366523649 0.115197130242835
vn -0.199527282466719 0.973097366523649 0.115197130242835
vn -5.31789765416778E-17 0.973097366523649 -0.23039426048567
vn -5.31789765416778E-17 0.973097366523649 -0.23039426048567
vn 0.19952728246672 0.973097366523649 0.115197130242835
vn 0.19952728246672 0.973097366523649 0.115197130242835
vn -0.118615895886146 0.99057577145357 0.0684829194200351
vn -0.118615895886146 0.99057577145357 0.0684829194200352
vn -2.68784893790513E-17 0.99057577145357 -0.13696583884007
vn -2.68784893790513E-17 0.99057577145357 -0.13696583884007
vn 0.118615895886146 0.99057577145357 0.068482919420035
vn 0.118615895886146 0.99057577145357 0.0684829194200351
vn -0.0527558175137479 0.998142824595396 0.0304585854428811
vn -0.052755817513748 0.998142824595396 0.0304585854428812
vn -1.28327389036907E-17 0.998142824595396 -0.0609171708857622
vn -1.28327389036907E-17 0.998142824595396 -0.0609171708857622
vn 0.0527558175137479 0.998142824595396 0.0304585854428811
vn 0.0527558175137479 0.998142824595396 0.0304585854428811
vn -0.0245375859747114 0.99959852399153 0.0141667818677632
vn -0.0245375859747113 0.99959852399153 0.0141667818677632
vn -4.86467730675783E-18 0.99959852399153 -0.0283335637355264
vn -4.86467730675782E-18 0.99959852399153 -0.0283335637355263
vn 0.0245375859747114 0.99959852399153 0.0141667818677632
vn 0.0245375859747114 0.99959852399153 0.0141667818677632
vn 0 1 0
g SelectorBtn
f 1//1 2//1 3//1
f 1//1 3//1 4//1
f 1//1 4//1 2//1
f 2//2 5//3 6//4 3//5
f 3//6 6//7 7//8 4//9
f 4//10 7//11 5//12 2//13
f 5//3 8//14 9//15 6//4
f 6//7 9//16 10//17 7//8
f 7//11 10//18 8//19 5//12
f 8//14 11//20 12//21 9//15
f 9//16 12//22 13//23 10//17
f 10//18 13//24 11//25 8//19
f 11//20 14//26 15//27 12//21
f 12//22 15//28 16//29 13//23
f 13//24 16//30 14//31 11//25
f 14//26 17//32 18//33 15//27
f 15//28 18//34 19//35 16//29
f 16//30 19//36 17//37 14//31
f 17//32 20//38 21//39 18//33
f 18//34 21//40 22//41 19//35
f 19//36 22//42 20//43 17//37
f 20//38 23//44 24//45 21//39
f 21//40 24//46 25//47 22//41
f 22//42 25//48 23//49 20//43
f 23//44 26//50 27//51 24//45
f 24//46 27//52 28//53 25//47
f 25//48 28//54 26//55 23//49
f 26//50 29//56 30//57 27//51
f 27//52 30//58 31//59 28//53
f 28//54 31//60 29//61 26//55
f 29//56 32//62 33//63 30//57
f 30//58 33//64 34//65 31//59
f 31//60 34//66 32//67 29//61
f 32//62 35//68 36//69 33//63
f 33//64 36//70 37//71 34//65
f 34//66 37//72 35//73 32//67
f 35//68 38//74 39//75 36//69
f 36//70 39//76 40//77 37//71
f 37//72 40//78 38//79 35//73
f 38//74 41//80 42//81 39//75
f 39//76 42//82 43//83 40//77
f 40//78 43//84 41//85 38//79
f 41//80 44//86 45//87 42//81
f 42//82 45//88 46//89 43//83
f 43//84 46//90 44//91 41//85
f 44//86 47//92 48//93 45//87
f 45//88 48//94 49//95 46//89
f 46//90 49//96 47//97 44//91
f 47//92 50//98 51//99 48//93
f 48//94 51//100 52//101 49//95
f 49//96 52//102 50//103 47//97
f 50//98 53//104 54//105 51//99
f 51//100 54//106 55//107 52//101
f 52//102 55//108 53//109 50//103
f 53//104 56//110 57//111 54//105
f 54//106 57//112 58//113 55//107
f 55//108 58//114 56//115 53//109
f 56//110 59//116 60//117 57//111
f 57//112 60//118 61//119 58//113
f 58//114 61//120 59//121 56//115
f 59//122 62//122 60//122
f 60//122 62//122 61//122
f 61//122 62//122 59//122
#h 
